<svg width="202" height="202" viewBox="0 0 202 202" fill="none" xmlns="http://www.w3.org/2000/svg">
<path d="M101 201C156.228 201 201 156.228 201 101C201 45.7715 156.228 1 101 1C45.7715 1 1 45.7715 1 101C1 156.228 45.7715 201 101 201Z" stroke="#B59A73" stroke-width="2"/>
<path d="M80 23C90 50 100 60 127 70C100 80 90 90 80 117C70 90 60 80 33 70C60 60 70 50 80 23Z" stroke="#2F2F2F" stroke-width="3" stroke-linecap="round" stroke-linejoin="round"/>
<path d="M153 54C159 70 165 76 181 82C165 88 159 94 153 110C147 94 141 88 125 82C141 76 147 70 153 54Z" stroke="#2F2F2F" stroke-width="3" stroke-linecap="round" stroke-linejoin="round"/>
<path d="M142 22V32" stroke="#2F2F2F" stroke-width="3" stroke-linecap="round" stroke-linejoin="round"/>
<path d="M142 42V49" stroke="#2F2F2F" stroke-width="3" stroke-linecap="round" stroke-linejoin="round"/>
<path d="M132 36H140" stroke="#2F2F2F" stroke-width="3" stroke-linecap="round" stroke-linejoin="round"/>
<path d="M145 36H153" stroke="#2F2F2F" stroke-width="3" stroke-linecap="round" stroke-linejoin="round"/>
<path d="M117 103V111" stroke="#2F2F2F" stroke-width="3" stroke-linecap="round" stroke-linejoin="round"/>
<path d="M117 120V126" stroke="#2F2F2F" stroke-width="3" stroke-linecap="round" stroke-linejoin="round"/>
<path d="M109 115H115" stroke="#2F2F2F" stroke-width="3" stroke-linecap="round" stroke-linejoin="round"/>
<path d="M120 115H126" stroke="#2F2F2F" stroke-width="3" stroke-linecap="round" stroke-linejoin="round"/>
<path d="M22 155C52 154 69 158 87 166C97 171 107 175 121 175H142C155 175 166 168 174 156" stroke="#2F2F2F" stroke-width="3" stroke-linecap="round" stroke-linejoin="round"/>
<path d="M75 141C85 135 97 133 110 136C126 140 138 149 153 144C161 141 167 136 175 129C182 123 192 132 187 140C178 155 164 169 148 179C135 187 119 190 103 187L49 177" stroke="#2F2F2F" stroke-width="3" stroke-linecap="round" stroke-linejoin="round"/>
<path d="M21 182C41 181 63 184 81 190C103 198 128 202 152 194" stroke="#2F2F2F" stroke-width="3" stroke-linecap="round" stroke-linejoin="round"/>
</svg>
