<svg xmlns="http://www.w3.org/2000/svg" width="160" height="160" viewBox="0 0 160 160" role="img" aria-labelledby="title desc">
  <title id="title">美容・ファッション市場</title>
  <desc id="desc">横顔シルエットの線画アイコン</desc>
  <circle cx="80" cy="80" r="68" fill="#1d1d1b"/>
  <g fill="none" stroke="#c7a46a" stroke-width="4" stroke-linecap="round" stroke-linejoin="round">
    <path d="M97 116c-8 5-24 6-36 0"/>
    <path d="M75 114c-2-12 3-18 10-23"/>
    <path d="M66 103c-14-7-23-20-23-36 0-21 16-38 39-38 20 0 35 13 38 32"/>
    <path d="M118 63c7 9 5 23-4 29-6 4-14 4-20 1"/>
    <path d="M96 54c8 2 15 9 17 18"/>
    <path d="M74 58c8 3 16 3 23-3"/>
    <path d="M55 60c9 3 22-2 31-15"/>
    <path d="M91 78c3 2 6 2 9 0"/>
    <path d="M103 88c-5 4-11 5-17 3"/>
    <path d="M115 45c7-10 1-24-12-24-8 0-14 5-16 11"/>
  </g>
</svg>
