<svg xmlns="http://www.w3.org/2000/svg" width="160" height="160" viewBox="0 0 160 160" fill="none">
  <g stroke="#ad946f" stroke-width="3" stroke-linecap="round" stroke-linejoin="round">
    <path d="M52 126c-4-18-12-25-24-36-7-7-10-17-9-28"/>
    <path d="M32 73V38c0-5 8-5 8 0v30"/>
    <path d="M43 69V28c0-5 8-5 8 0v38"/>
    <path d="M55 69V31c0-5 8-5 8 0v43"/>
    <path d="M67 78V45c0-5 8-5 8 0v48c0 16-5 25-11 33"/>
    <path d="M41 82c-6-8-14-9-20-5 5 12 13 21 24 28"/>
    <path d="M108 126c4-18 12-25 24-36 7-7 10-17 9-28"/>
    <path d="M128 73V38c0-5-8-5-8 0v30"/>
    <path d="M117 69V28c0-5-8-5-8 0v38"/>
    <path d="M105 69V31c0-5-8-5-8 0v43"/>
    <path d="M93 78V45c0-5-8-5-8 0v48c0 16 5 25 11 33"/>
    <path d="M119 82c6-8 14-9 20-5-5 12-13 21-24 28"/>
    <path d="M100 15l4 10 10 4-10 4-4 10-4-10-10-4 10-4 4-10Z"/>
    <path d="M78 20l3 7 7 3-7 3-3 7-3-7-7-3 7-3 3-7Z"/>
  </g>
</svg>
