<svg xmlns="http://www.w3.org/2000/svg" width="160" height="160" viewBox="0 0 160 160" fill="none">
  <g stroke="#ad946f" stroke-width="3" stroke-linecap="round" stroke-linejoin="round">
    <path d="M62 45 79 28l21 21-17 17z"/>
    <path d="M76 31 94 13l17 17-18 18"/>
    <path d="M102 51 88 65l21 21 14-14z"/>
    <path d="M111 86 97 100"/>
    <path d="M62 45 44 63l26 26 18-18"/>
    <path d="M44 63 31 76l26 26 13-13"/>
    <path d="M31 76 20 116l37-14"/>
    <path d="M26 98 9 132"/>
    <path d="M95 72c13 2 26 9 36 20"/>
    <path d="M125 77c9 3 17 9 22 17"/>
    <path d="M134 86l13-13"/>
    <path d="M143 98l9-9"/>
  </g>
</svg>
