<svg width="229" height="202" viewBox="0 0 229 202" fill="none" xmlns="http://www.w3.org/2000/svg">
<path d="M101 201C156.228 201 201 156.228 201 101C201 45.7715 156.228 1 101 1C45.7715 1 1 45.7715 1 101C1 156.228 45.7715 201 101 201Z" stroke="#B59A73" stroke-width="2"/>
<path d="M79 85C79 68 90 56 106 56C122 56 133 68 133 85" stroke="#2F2F2F" stroke-width="3" stroke-linecap="round" stroke-linejoin="round"/>
<path d="M82 84C82 106 94 122 106 122C118 122 130 106 130 84" stroke="#2F2F2F" stroke-width="3" stroke-linecap="round" stroke-linejoin="round"/>
<path d="M84 75C96 73 106 68 113 60C119 67 126 71 132 73" stroke="#2F2F2F" stroke-width="3" stroke-linecap="round" stroke-linejoin="round"/>
<path d="M92 123V140" stroke="#2F2F2F" stroke-width="3" stroke-linecap="round" stroke-linejoin="round"/>
<path d="M121 123V140" stroke="#2F2F2F" stroke-width="3" stroke-linecap="round" stroke-linejoin="round"/>
<path d="M92 140L106 155L121 140" stroke="#2F2F2F" stroke-width="3" stroke-linecap="round" stroke-linejoin="round"/>
<path d="M55 190V162C55 144 72 132 92 132" stroke="#2F2F2F" stroke-width="3" stroke-linecap="round" stroke-linejoin="round"/>
<path d="M157 190V162C157 144 140 132 120 132" stroke="#2F2F2F" stroke-width="3" stroke-linecap="round" stroke-linejoin="round"/>
<path d="M74 164V190" stroke="#2F2F2F" stroke-width="3" stroke-linecap="round" stroke-linejoin="round"/>
<path d="M138 164V190" stroke="#2F2F2F" stroke-width="3" stroke-linecap="round" stroke-linejoin="round"/>
<path d="M149 43C149 26 166 12 188 12C210 12 227 26 227 43C227 60 210 74 188 74C183 74 178 73.3 173 72L154 84L160 66C153 60 149 52 149 43Z" stroke="#2F2F2F" stroke-width="2.4" stroke-linecap="round" stroke-linejoin="round"/>
</svg>
